PathFileType	4	(X/Y/Z)	C:\Users\Basilio\Documents\Thesis Gigler\squatting_fais\c3dfiles\044\SLS_back_pre2\markers_experimental.trc
DataRate	CameraRate	NumFrames	NumMarkers	Units	OrigDataRate	OrigDataStartFrame	OrigNumFrames
200.000000	200.000000	4	63	mm	200.000000	1267	1449
Frame#	Time	FHD			LBHD			RBHD			C7			T10			LSHO			LUUPA			LMUPA			LDUPA			LLEP			LMEP			LUL			LRFIN			RSHO			RUPA1			RMUPA			RDUPA			RLEP			RMEP			RUL			LASI			RASI			USACR			LSACR			RSACR			LTHI1			LTHI2			LTHI3			LTHI4			LLFC			LMFC			LTIB1			LTIB2			LTIB3			LTIB4			LLMAL			LMMAL			LHEE			LMT1			LMT2			LMT5			RTHI			RTHI2			RTHI3			RTHI4			RLFC			RMFC			RTIB1			RTIB2			RTIB3			RTIB4			RLMAL			RMMAL			RHEE			RMT1			RMT2			RMT5			RUFIN			CLAV			LRAD			RRAD			*61			*62			
		X1	Y1	Z1	X2	Y2	Z2	X3	Y3	Z3	X4	Y4	Z4	X5	Y5	Z5	X6	Y6	Z6	X7	Y7	Z7	X8	Y8	Z8	X9	Y9	Z9	X10	Y10	Z10	X11	Y11	Z11	X12	Y12	Z12	X13	Y13	Z13	X14	Y14	Z14	X15	Y15	Z15	X16	Y16	Z16	X17	Y17	Z17	X18	Y18	Z18	X19	Y19	Z19	X20	Y20	Z20	X21	Y21	Z21	X22	Y22	Z22	X23	Y23	Z23	X24	Y24	Z24	X25	Y25	Z25	X26	Y26	Z26	X27	Y27	Z27	X28	Y28	Z28	X29	Y29	Z29	X30	Y30	Z30	X31	Y31	Z31	X32	Y32	Z32	X33	Y33	Z33	X34	Y34	Z34	X35	Y35	Z35	X36	Y36	Z36	X37	Y37	Z37	X38	Y38	Z38	X39	Y39	Z39	X40	Y40	Z40	X41	Y41	Z41	X42	Y42	Z42	X43	Y43	Z43	X44	Y44	Z44	X45	Y45	Z45	X46	Y46	Z46	X47	Y47	Z47	X48	Y48	Z48	X49	Y49	Z49	X50	Y50	Z50	X51	Y51	Z51	X52	Y52	Z52	X53	Y53	Z53	X54	Y54	Z54	X55	Y55	Z55	X56	Y56	Z56	X57	Y57	Z57	X58	Y58	Z58	X59	Y59	Z59	X60	Y60	Z60	X61	Y61	Z61	X62	Y62	Z62	X63	Y63	Z63	

1268	6.335	-241.3251342773438	1807.2255859375	-850.3352661132815	-376.4299316406251	1758.317260742188	-917.0303955078127	-403.3029174804689	1734.855590820313	-754.2027587890626	-410.3840332031251	1563.5244140625	-846.330505371094	-393.2506408691407	1260.226806640625	-850.7741699218752	-321.3194274902344	1592.812866210938	-995.079772949219	-163.103271484375	1579.908447265625	-1106.6044921875	-132.7683715820313	1595.293701171875	-1069.02197265625	-94.83567810058595	1581.870727539063	-1113.472412109375	-35.06019973754884	1586.540405273438	-1107.521240234375	-35.97604751586915	1510.67919921875	-1094.078491210938	217.6819610595704	1626.503295898438	-981.0144653320315	216.9802856445313	1648.869262695313	-879.2797851562502	-317.4819030761719	1574.839111328125	-689.8964843750001	-165.390609741211	1566.630004882813	-587.5750122070314	-136.9039154052735	1584.540771484375	-626.2568969726564	-96.29480743408206	1574.43115234375	-582.6746826171876	-35.48888015747071	1585.399658203125	-591.4041137695314	-27.7095012664795	1504.401489257813	-602.1856079101564	211.7471923828126	1630.952880859375	-722.9188842773439	-215.8909759521485	1068.911865234375	-959.655944824219	-207.5230255126954	1057.49365234375	-742.6155395507814	-380.1086730957032	1117.070190429688	-843.5098266601565	-385.8009338378907	1083.174682617188	-869.2445068359377	-383.7038574218751	1087.93212890625	-811.6141357421877	-324.3193359375001	836.9621582031252	-1034.137329101563	-292.7153320312501	758.6291503906251	-1044.864379882813	-244.1735229492188	759.4974365234376	-1042.376708984375	-319.8265686035157	705.8135375976564	-1030.595825195313	-305.2777404785157	545.9014892578126	-1030.697265625	-287.8148803710938	529.6842041015626	-910.1341552734377	-274.0740051269532	366.2470092773438	-977.4202270507815	-301.9993896484376	326.1642150878907	-1051.932495117188	-270.5227050781251	322.4594726562501	-1017.556701660156	-280.7228088378907	240.9633789062501	-995.5002441406252	-327.6450195312501	126.3285217285157	-1052.031372070313	-306.7750854492188	129.3490295410157	-968.1416625976565	-389.2022399902345	98.6199645996094	-1007.057800292969	-180.6520233154297	59.04867172241212	-985.1975097656252	-179.978012084961	61.49684906005861	-1032.391723632813	-216.6606750488282	48.61224365234376	-1078.691284179688	-315.3627624511719	791.6429443359377	-663.5438842773439	-276.6904907226563	735.9954223632814	-662.9280395507814	-244.4790496826172	736.8988647460939	-668.4308471679689	-304.9862976074219	657.7701416015626	-679.4909667968751	-312.3789672851563	541.5799560546876	-686.6629028320314	-319.3952026367188	534.2146606445314	-811.833190917969	-267.6938476562501	414.3003845214845	-713.1909179687501	-335.8814392089844	341.6469116210938	-664.8543090820314	-294.2243652343751	335.8486633300782	-682.8082275390626	-283.3989257812501	284.9922485351563	-708.3984375000001	-342.3291015625001	129.903564453125	-692.6614990234376	-323.1119995117188	138.8584442138672	-774.796813964844	-400.6490783691407	104.2622604370117	-738.2134399414064	-194.4360809326172	64.67408752441408	-764.3649291992189	-189.1983032226563	58.54471588134767	-728.3594970703126	-226.7792510986329	43.66752243041993	-674.8341064453126	207.3992462158204	1612.44775390625	-839.1330566406252	nan	nan	nan	202.5230712890626	1581.208862304688	-928.9172363281252	196.0064392089844	1574.050048828125	-768.196228027344	nan	nan	nan	nan	nan	nan	
1269	6.34	-241.6013336181641	1806.936157226563	-850.1966552734377	-376.4565124511719	1758.394409179688	-917.0337524414065	-403.6815795898439	1734.847778320313	-754.0925292968751	-410.5431213378907	1563.443115234375	-846.269958496094	-393.2020874023439	1260.181640625	-850.979675292969	-321.3293762207032	1592.817016601563	-995.0009765625002	-163.0904541015625	1580.010498046875	-1106.421875	-132.8488922119141	1595.494384765625	-1068.809814453125	-94.81419372558595	1582.12353515625	-1113.2353515625	-35.01145553588868	1586.678588867188	-1107.309448242188	-35.94386291503907	1510.82666015625	-1093.9140625	217.7562103271485	1626.554077148438	-980.7872314453127	216.9766082763672	1648.994506835938	-879.172058105469	-317.5700073242188	1574.61328125	-689.8356323242189	-165.6590728759766	1566.500244140625	-587.5267333984376	-137.0333404541016	1584.373901367188	-626.2025756835939	-96.42118835449222	1574.440795898438	-582.7672119140626	-35.69260787963868	1585.326904296875	-591.3544921875001	-27.82959938049317	1504.3984375	-602.2496337890626	211.6817169189454	1630.980224609375	-722.7862548828126	-215.4412231445313	1068.9609375	-959.8801879882815	-207.4802551269532	1057.542114257813	-742.6773071289064	-379.9014892578126	1116.980102539063	-843.735046386719	-385.4885864257814	1083.004516601563	-869.5103759765627	-383.5994567871094	1087.769165039063	-811.8502197265627	-324.1328125000001	836.9989013671877	-1034.29052734375	-292.5443115234376	758.5186767578126	-1044.932495117188	-243.8845825195313	759.2515258789064	-1042.32177734375	-319.7702941894532	705.7888183593751	-1030.665771484375	-305.3575134277344	545.9197998046876	-1030.71484375	-288.1166992187501	529.6734008789064	-910.078552246094	-274.1468200683594	366.2780761718751	-977.367370605469	-302.0750427246094	326.1485595703126	-1051.938720703125	-270.6176452636719	322.4591979980469	-1017.442321777344	-280.7961120605469	240.9910125732422	-995.529479980469	-327.7121887207032	126.3087387084961	-1052.060302734375	-306.8263854980469	129.2754974365235	-968.2371215820315	-389.2114257812501	98.71909332275393	-1007.080017089844	-180.7647247314453	59.28391265869142	-985.1052856445315	-179.9389190673828	61.4306983947754	-1032.40087890625	-216.5038452148438	48.67758178710939	-1078.72802734375	-315.0976867675782	791.7694091796877	-663.7090454101564	-276.4814758300782	736.0122070312501	-662.9998779296876	-244.2450866699219	736.9081420898439	-668.6942138671876	-304.6675109863282	657.8720092773439	-679.5991210937501	-312.1449890136719	541.6234130859376	-686.7738647460939	-319.1712341308594	534.2099609375001	-811.926940917969	-267.6338806152344	414.1996154785157	-713.2926025390626	-335.8229370117188	341.6704406738282	-664.8654785156251	-294.2744445800782	335.7219238281251	-683.0484619140626	-283.3500671386719	285.0198364257813	-708.4398193359376	-342.2986450195313	129.9877319335938	-692.7388305664064	-323.0869750976563	138.8529663085938	-774.858093261719	-400.6783142089845	104.2531280517578	-738.1983642578126	-194.2032623291016	64.68972778320314	-764.3331909179689	-189.167953491211	58.58070755004884	-728.3803710937501	-226.7967224121094	43.64452743530274	-674.8432617187501	207.4440460205079	1612.3779296875	-838.945251464844	nan	nan	nan	202.420394897461	1581.338134765625	-928.6972656250002	196.0183410644532	1574.408447265625	-768.0426025390627	nan	nan	nan	nan	nan	nan	
1270	6.345	-241.6942596435547	1806.831298828125	-850.1634521484377	-376.5880126953126	1758.276123046875	-917.0577392578127	-403.9190063476564	1734.807983398438	-754.0872192382814	-410.947967529297	1564.068969726563	-846.6868286132815	-393.0567932128907	1260.075805664063	-851.1946411132815	-321.4144592285157	1592.806396484375	-994.9423828125002	-163.1012268066407	1580.150146484375	-1106.286743164063	-132.9990997314453	1595.612426757813	-1068.579711914063	-94.78065490722658	1582.189331054688	-1113.07666015625	-34.97591781616212	1586.822143554688	-1107.120727539063	-36.23777389526368	1511.239501953125	-1093.56298828125	217.9899597167969	1626.504028320313	-980.4832763671877	217.0051727294922	1649.037475585938	-878.9600219726565	-317.7396240234376	1574.423828125	-689.7625122070314	-165.7246551513672	1566.387451171875	-587.5032348632814	-137.0906524658203	1584.213500976563	-626.1291503906251	-96.70056915283206	1574.198852539063	-582.5744018554689	-35.79336547851563	1585.212890625	-591.2905273437501	-27.98720932006837	1504.33203125	-602.2530517578126	211.5545654296876	1631.0751953125	-722.6972656250001	-215.0776672363282	1068.950805664063	-960.0527343750002	-207.3778381347657	1057.63916015625	-742.6879882812501	-379.6863708496094	1116.896484375	-844.012878417969	-385.1646728515626	1082.9921875	-869.8375244140627	-383.1517028808594	1087.58251953125	-812.1279907226565	-323.8866577148438	836.9514160156252	-1034.45751953125	-292.2963256835938	758.4861450195314	-1045.080444335938	-243.7388305664063	759.2176513671876	-1042.383178710938	-319.7231750488282	705.8082275390626	-1030.729614257813	-305.4153442382813	545.8880615234376	-1030.71435546875	-288.3257751464844	529.6367187500001	-910.117126464844	-274.1951904296876	366.3048706054688	-977.3514404296877	-302.1755981445313	326.1323547363282	-1051.923706054688	-270.6987915039063	322.4273986816407	-1017.464477539063	-280.8330688476563	241.065902709961	-995.4825439453127	-327.6755981445313	126.3042831420899	-1052.025756835938	-306.8290405273438	129.2766418457032	-968.2122802734377	-389.1759033203126	98.60138702392581	-1007.126403808594	-180.7347259521485	59.29676437377931	-985.1272583007815	-179.9171600341797	61.43645095825197	-1032.440551757813	-216.6135253906251	48.660213470459	-1078.698364257813	-314.9184875488282	791.8860473632815	-663.7534790039064	-276.3759765625001	736.0360717773439	-663.0905761718751	-244.0831756591797	736.8989257812501	-668.8854980468751	-304.4767150878907	657.8027954101564	-679.7040405273439	-311.9129943847657	541.7601318359376	-686.9854736328126	-318.9009704589844	534.2139282226564	-812.1048583984377	-267.5244750976563	414.1329345703126	-713.2962036132814	-335.7568664550782	341.7219543457032	-664.9373779296876	-294.1400756835938	335.8124694824219	-682.8832397460939	-283.2772216796876	285.0162658691407	-708.5059204101564	-342.2709960937501	130.0003814697266	-692.7941284179689	-323.0749206542969	138.8597412109375	-774.9183349609377	-400.6756591796876	104.2399597167969	-738.2404785156251	-194.4194335937501	64.79612731933595	-764.3265991210939	-189.1123657226563	58.56452941894533	-728.3442382812501	-226.771713256836	43.66797637939454	-674.8369140625001	207.4403839111329	1612.548583984375	-838.8251953125002	nan	nan	nan	202.4762878417969	1581.379760742188	-928.600769042969	196.0647888183594	1574.854858398438	-767.8904418945314	nan	nan	nan	nan	nan	nan	
1271	6.350000000000001	-241.7108917236329	1806.76123046875	-850.1299438476565	-376.7788391113282	1758.247802734375	-917.0380859375002	-404.0813598632814	1734.81103515625	-754.0496826171876	-411.1191406250001	1563.92333984375	-846.674499511719	-393.0045471191407	1259.96337890625	-851.378356933594	-321.4883728027344	1592.83447265625	-994.9403076171877	-163.06689453125	1580.262939453125	-1106.154541015625	-133.0935821533203	1595.60107421875	-1068.44677734375	-94.80631256103517	1582.409545898438	-1112.90283203125	-34.98002243041993	1587.025024414063	-1106.913940429688	-36.35614395141602	1511.292358398438	-1093.410400390625	218.0340423583985	1626.578002929688	-980.2407836914065	217.0984802246094	1649.058349609375	-878.7427978515627	-317.8685607910157	1574.271240234375	-689.7561035156251	-165.8172149658203	1566.173095703125	-587.5135498046876	-137.2009429931641	1584.23095703125	-626.1187133789064	-96.88088989257815	1574.079223632813	-582.6144409179689	-35.9491081237793	1585.074340820313	-591.1947631835939	-28.10370254516602	1504.295288085938	-602.2885131835939	211.300521850586	1631.092895507813	-722.5308837890626	-214.7297363281251	1068.968017578125	-960.2473754882815	-207.1290435791016	1057.788452148438	-742.8845214843751	-379.5316467285157	1116.758422851563	-844.2103271484377	-384.8473205566407	1082.80517578125	-870.121032714844	-383.0478820800782	1087.444946289063	-812.3411865234377	-323.6976013183594	836.9332275390627	-1034.718017578125	-292.0918273925782	758.3938598632814	-1045.085815429688	-243.4611968994141	759.1424560546876	-1042.44189453125	-319.6612243652344	705.7800903320314	-1030.823364257813	-305.5148315429688	545.8361816406251	-1030.730346679688	-288.6360473632813	529.7405395507814	-910.156188964844	-274.2739257812501	366.3193054199219	-977.4102783203127	-302.2098693847657	326.1582031250001	-1051.961059570313	-270.7700500488282	322.4617309570313	-1017.455749511719	-280.8203735351563	241.0331268310547	-995.4837036132815	-327.6536865234376	126.2387924194336	-1052.041870117188	-306.8358459472657	129.28076171875	-968.2410278320315	-389.4317016601564	99.19866943359378	-1007.547729492188	-180.7400970458985	59.3373260498047	-985.105651855469	-179.9173889160157	61.4376564025879	-1032.440795898438	-216.6189880371094	48.55167388916017	-1078.712524414063	-314.6788330078126	791.8660888671877	-663.8249511718751	-276.1943359375001	736.1165771484376	-663.1911621093751	-243.834457397461	736.8379516601564	-669.0215454101564	-304.1823425292969	657.4658203125001	-679.6130371093751	-311.7227172851563	541.7073364257814	-687.1166381835939	-318.6602783203126	534.2512817382814	-812.272888183594	-267.4289245605469	414.1537475585939	-713.3824462890626	-335.6041564941407	341.7930297851563	-665.0805053710939	-294.0894775390626	335.6146545410157	-683.0720214843751	-283.1807556152344	285.0372314453126	-708.6271362304689	-342.2651977539063	130.0465240478516	-692.8395996093751	-323.0476684570313	138.8507537841797	-774.9667968750002	-400.6795043945314	104.2591629028321	-738.2839355468751	-194.4041900634766	64.65919494628908	-764.2356567382814	-189.1723022460938	58.52567672729494	-728.3948364257814	-226.8132629394532	43.66721725463868	-674.8432006835939	207.3135681152344	1612.569580078125	-838.5992431640627	nan	nan	nan	202.447250366211	1581.492065429688	-928.443786621094	196.1272583007813	1575.346923828125	-767.7424316406251	nan	nan	nan	nan	nan	nan	
